<svg width="177" height="180" viewBox="0 0 177 180" fill="none" xmlns="http://www.w3.org/2000/svg">
<path fill-rule="evenodd" clip-rule="evenodd" d="M18.9066 81.7416C20.0293 82.5255 21.5571 82.2525 22.3512 81.142C31.9336 68.2055 43.0347 60.5735 55.2938 58.3588C67.2309 56.2039 80.19 59.3517 93.781 67.6298C96.795 69.4286 101.657 73.4127 106.172 78.3237C103.896 83.1557 102.757 88.615 102.601 93.7158C102.373 101.249 104.567 107.769 107.532 110.681C109.175 112.294 111.083 113.13 113.171 113.26C115.843 113.423 119.247 112.3 122.683 108.221C127.419 102.572 127.627 95.6131 124.722 88.4833C123.192 84.736 120.739 80.9464 117.88 77.3893C120.078 74.9326 123.04 73.2258 126.958 72.9985C135.241 72.4623 142.474 78.1165 148.145 85.2487C153.06 91.4172 159.294 100.703 159.444 108.893C159.496 111.676 158.703 114.21 161.318 116.05C165.327 118.903 167.871 114.819 167.804 110.996C167.657 102.783 163.173 93.6178 159.107 86.7054C151.64 73.9825 139.872 63.3928 126.486 63.9197C120.215 64.195 115.279 66.7085 111.57 70.4562C106.624 65.572 101.525 61.7011 98.2993 59.8709C82.3776 51.0445 67.3775 48.2227 53.8489 51.3221C40.3326 54.4114 28.2269 63.3485 18.307 78.297C17.5231 79.4197 17.7839 80.9576 18.9066 81.7416ZM113.595 88.1741C114.828 90.2898 115.779 92.4125 116.304 94.495C116.968 97.1439 116.871 99.7206 115.077 101.843C114.773 102.198 114.411 102.683 114.106 103.038C113.682 102.151 112.911 100.396 112.648 98.88C112.077 95.4946 112.166 91.3361 113.077 87.3232C113.275 87.6131 113.441 87.8885 113.595 88.1741Z" fill="#2E9B96"/>
<path fill-rule="evenodd" clip-rule="evenodd" d="M113.828 103.35C113.566 103.258 113.322 103.212 113.372 103.397C113.44 103.63 113.593 103.565 113.828 103.35Z" fill="#2E9B96"/>
<path fill-rule="evenodd" clip-rule="evenodd" d="M24.7063 75.2559C25.4005 72.5776 26.0302 69.7464 26.3721 67.0911C26.8887 62.9506 26.7868 59.2596 25.3713 56.7992C24.8468 55.5412 23.3895 54.9513 22.1416 55.488C20.8836 56.0125 20.2938 57.4698 20.8305 58.7177C21.0072 59.3555 20.8946 60.0676 20.8081 60.8611C20.6198 62.7291 19.8384 64.7781 18.9851 66.9896C17.8934 69.8109 16.4921 72.6819 15.3278 75.3157C14.2662 77.6995 13.4151 79.8886 12.9261 81.5926C12.1525 84.2747 12.4397 86.3684 12.9156 87.5428C13.0447 87.8486 16.4889 92.1387 20.6925 89.4881C22.1944 88.535 25.8746 85.9252 26.0563 85.7956C28.241 84.0716 32.3101 80.9339 36.3584 78.9687C37.6371 78.3446 38.877 77.7733 40.0525 77.5233C40.1336 77.6213 40.2146 77.7193 40.3079 77.8072C41.6787 79.1906 43.8915 79.197 45.285 77.8385C46.0713 77.1677 46.9632 75.5018 47.1194 74.5681C47.4154 72.7554 46.5307 71.4859 44.7385 70.6159C42.2982 69.4361 39.0714 69.5256 35.5768 70.414C31.907 71.3648 27.9094 73.3913 24.7063 75.2559ZM22.1165 83.8751C21.9393 84.4342 21.9134 84.827 22.2838 84.8508C22.6989 84.8789 22.3187 84.2443 22.1165 83.8751Z" fill="#2E9B96"/>
</svg>
