<svg width="134" height="147" viewBox="0 0 134 147" fill="none" xmlns="http://www.w3.org/2000/svg">
<path fill-rule="evenodd" clip-rule="evenodd" d="M89.945 128.989C90.0542 127.824 89.2074 126.805 88.0478 126.683C74.3985 125.016 64.05 119.986 57.2378 111.812C50.6058 103.852 47.4823 92.8984 47.9038 79.3133C47.9698 76.3162 48.8803 71.0251 50.6258 65.6017C55.1748 65.2561 59.7103 63.801 63.5654 61.7672C69.2579 58.7621 73.1772 54.3843 74.091 50.9544C74.5964 49.0546 74.4131 47.2847 73.6297 45.6787C72.6244 43.6249 70.3556 41.5695 65.8778 40.7361C59.6849 39.5985 54.4274 42.3769 50.3547 47.539C48.216 50.2555 46.4345 53.6746 44.9968 57.2973C42.2454 56.7001 39.7289 55.2187 37.909 52.4043C34.0195 46.477 35.1713 38.7205 38.0798 31.5022C40.5908 25.2514 44.8618 16.7065 50.883 13.1437C52.9283 11.9319 55.1448 11.4536 55.4096 8.73563C55.8392 4.55467 51.7331 4.38599 48.921 6.04685C42.8823 9.61758 37.9633 16.8113 34.5416 22.7444C28.237 33.6534 25.33 46.8587 31.3634 56.5812C34.2109 61.1237 38.1585 63.7312 42.5059 64.9071C40.9623 70.64 40.2356 76.0591 40.2354 79.2266C40.3889 94.7743 44.6148 107.107 52.6193 115.851C60.6111 124.59 72.3526 129.816 87.6387 130.886C88.8032 130.995 89.8358 130.153 89.945 128.989ZM54.815 55.936C55.8668 54.1279 57.0431 52.527 58.3687 51.2591C60.0568 49.6497 62.0122 48.6361 64.3448 49.0739C64.737 49.1506 65.25 49.2152 65.6422 49.2919C65.1619 49.9808 64.1826 51.2934 63.1675 52.1274C60.8932 53.9786 57.7663 55.6649 54.4012 56.6792C54.5329 56.4097 54.6676 56.1704 54.815 55.936Z" fill="#2E9B96"/>
<path fill-rule="evenodd" clip-rule="evenodd" d="M65.9835 49.3669C66.0253 49.6008 66.0942 49.8014 66.2108 49.6859C66.3546 49.5373 66.2422 49.4509 65.9835 49.3669Z" fill="#2E9B96"/>
<path fill-rule="evenodd" clip-rule="evenodd" d="M82.6796 127.414C80.3973 128.027 78.0286 128.753 75.9119 129.618C72.6182 130.979 69.9191 132.61 68.6879 134.699C67.9744 135.618 68.1504 136.95 69.0751 137.65C69.9949 138.364 71.3261 138.188 72.027 137.263C72.4263 136.863 73.0028 136.647 73.6288 136.377C75.0959 135.729 76.9473 135.446 78.9499 135.148C81.506 134.77 84.2295 134.601 86.6768 134.356C88.8951 134.14 90.8801 133.85 92.3521 133.495C94.6707 132.939 96.105 131.844 96.7769 130.995C96.9497 130.77 98.6851 126.404 94.9443 124.398C93.6033 123.684 90.1133 122.05 89.9404 121.97C87.7389 121.073 83.6929 119.373 80.5267 117.193C79.5241 116.507 78.5771 115.826 77.896 115.058C77.9346 114.957 77.9733 114.855 77.9992 114.749C78.4492 113.148 77.5214 111.501 75.9248 111.038C75.095 110.737 73.4816 110.776 72.722 111.054C71.2507 111.598 70.6804 112.79 70.7895 114.488C70.9415 116.798 72.368 119.158 74.5009 121.379C76.754 123.705 79.9443 125.821 82.6796 127.414ZM90.1742 125.706C90.6643 125.602 90.967 125.455 90.8286 125.17C90.6745 124.85 90.3633 125.4 90.1742 125.706Z" fill="#2E9B96"/>
</svg>
