<svg width="34" height="35" viewBox="0 0 34 35" fill="none" xmlns="http://www.w3.org/2000/svg">
<mask id="path-1-inside-1_490_8527" fill="white">
<path d="M23.3749 6.41551C23.3749 2.89466 20.5208 0.0405273 17 0.0405273C13.4791 0.0405273 10.625 2.89466 10.625 6.41551C10.625 9.93636 13.4791 12.7905 17 12.7905C20.5208 12.7905 23.3749 9.93636 23.3749 6.41551ZM15.5118 16.051C11.5719 13.6392 5.1903 12.9764 1.9789 12.7938C0.899802 12.7327 0 13.5548 0 14.5928V29.388C0 30.3396 0.769646 31.1332 1.7591 31.1843C4.65839 31.3364 10.524 31.8935 14.5781 33.9355C15.2003 34.249 15.9381 33.822 15.9381 33.1473V16.812C15.9375 16.5019 15.7841 16.2177 15.5118 16.051ZM32.021 12.7938C28.8103 12.9758 22.428 13.6392 18.4888 16.051C18.2165 16.2177 18.0631 16.5132 18.0631 16.8233V33.1453C18.0631 33.822 18.8029 34.2496 19.4271 33.9355C23.4805 31.8955 29.3428 31.3384 32.2415 31.1863C33.2309 31.1345 34.0006 30.341 34.0006 29.3894V14.5928C33.9999 13.5548 33.1001 12.7327 32.021 12.7938Z"/>
</mask>
<path d="M15.5118 16.051L16.556 14.3453L16.556 14.3453L15.5118 16.051ZM1.9789 12.7938L2.09245 10.797L2.09195 10.797L1.9789 12.7938ZM1.7591 31.1843L1.86385 29.1871L1.86231 29.187L1.7591 31.1843ZM14.5781 33.9355L15.4779 32.1493L15.4778 32.1493L14.5781 33.9355ZM15.9381 16.812H17.9381L17.9381 16.8078L15.9381 16.812ZM32.021 12.7938L31.908 10.797L31.9079 10.797L32.021 12.7938ZM18.4888 16.051L19.533 17.7568L19.5331 17.7567L18.4888 16.051ZM19.4271 33.9355L20.3261 35.7221L20.3262 35.722L19.4271 33.9355ZM32.2415 31.1863L32.1369 29.189L32.1367 29.1891L32.2415 31.1863ZM34.0006 14.5928H36.0006V14.5915L34.0006 14.5928ZM25.3749 6.41551C25.3749 1.79009 21.6254 -1.95947 17 -1.95947V2.04053C19.4162 2.04053 21.3749 3.99923 21.3749 6.41551H25.3749ZM17 -1.95947C12.3745 -1.95947 8.62497 1.79009 8.62497 6.41551H12.625C12.625 3.99923 14.5837 2.04053 17 2.04053V-1.95947ZM8.62497 6.41551C8.62497 11.0409 12.3745 14.7905 17 14.7905V10.7905C14.5837 10.7905 12.625 8.83179 12.625 6.41551H8.62497ZM17 14.7905C21.6254 14.7905 25.3749 11.0409 25.3749 6.41551H21.3749C21.3749 8.83179 19.4162 10.7905 17 10.7905V14.7905ZM16.556 14.3453C14.2884 12.9571 11.4373 12.1317 8.85844 11.6241C6.24793 11.1103 3.75132 10.8914 2.09245 10.797L1.86535 14.7906C3.41788 14.8789 5.71777 15.0827 8.0859 15.5488C10.4857 16.0212 12.7954 16.7331 14.4676 17.7568L16.556 14.3453ZM2.09195 10.797C-0.0618352 10.6751 -2 12.3345 -2 14.5928H2C2 14.6256 1.99226 14.6619 1.97734 14.6947C1.96324 14.7256 1.94591 14.7467 1.93127 14.76C1.91665 14.7733 1.90231 14.7812 1.88978 14.7857C1.88333 14.788 1.87755 14.7894 1.87283 14.79C1.868 14.7907 1.86546 14.7906 1.86585 14.7906L2.09195 10.797ZM-2 14.5928V29.388H2V14.5928H-2ZM-2 29.388C-2 31.4548 -0.345257 33.0782 1.65588 33.1816L1.86231 29.187C1.88058 29.1879 1.91175 29.1982 1.9395 29.2266C1.96742 29.2552 2 29.3127 2 29.388H-2ZM1.65434 33.1816C4.55182 33.3335 10.0355 33.8869 13.6784 35.7217L15.4778 32.1493C11.0125 29.9002 4.76495 29.3392 1.86385 29.1871L1.65434 33.1816ZM13.6784 35.7217C15.507 36.6429 17.9381 35.4476 17.9381 33.1473H13.9381C13.9381 32.1964 14.8937 31.8551 15.4779 32.1493L13.6784 35.7217ZM17.9381 33.1473V16.812H13.9381V33.1473H17.9381ZM17.9381 16.8078C17.936 15.8196 17.4348 14.8832 16.556 14.3453L14.4675 17.7568C14.1334 17.5522 13.9389 17.1843 13.9381 16.8163L17.9381 16.8078ZM31.9079 10.797C30.249 10.891 27.7523 11.1099 25.1417 11.6239C22.5629 12.1316 19.7118 12.9571 17.4444 14.3454L19.5331 17.7567C21.205 16.7331 23.5146 16.021 25.9144 15.5485C28.2825 15.0823 30.5823 14.8786 32.1342 14.7906L31.9079 10.797ZM17.4445 14.3453C16.5429 14.8973 16.0631 15.8598 16.0631 16.8233H20.0631C20.0631 17.1666 19.8901 17.5382 19.533 17.7568L17.4445 14.3453ZM16.0631 16.8233V33.1453H20.0631V16.8233H16.0631ZM16.0631 33.1453C16.0631 35.4497 18.4978 36.6421 20.3261 35.7221L18.5281 32.149C19.108 31.8572 20.0631 32.1943 20.0631 33.1453H16.0631ZM20.3262 35.722C23.9688 33.8888 29.4497 33.3355 32.3463 33.1836L32.1367 29.1891C29.236 29.3412 22.9923 29.9023 18.528 32.149L20.3262 35.722ZM32.346 33.1836C34.3459 33.0789 36.0006 31.4563 36.0006 29.3894H32.0006C32.0006 29.3139 32.0332 29.2566 32.0609 29.2282C32.0884 29.2 32.1191 29.19 32.1369 29.189L32.346 33.1836ZM36.0006 29.3894V14.5928H32.0006V29.3894H36.0006ZM36.0006 14.5915C35.9991 12.3345 34.0621 10.6751 31.908 10.797L32.1341 14.7906C32.1344 14.7906 32.1319 14.7907 32.1271 14.79C32.1224 14.7894 32.1166 14.788 32.1102 14.7857C32.0977 14.7812 32.0834 14.7734 32.0689 14.7602C32.0544 14.7469 32.0371 14.726 32.0231 14.6953C32.0083 14.6628 32.0006 14.6267 32.0006 14.594L36.0006 14.5915Z" fill="#2E9B96" mask="url(#path-1-inside-1_490_8527)"/>
</svg>
