<svg width="171" height="188" viewBox="0 0 171 188" fill="none" xmlns="http://www.w3.org/2000/svg">
<path d="M44.3789 167.907L95.7087 190.794L150.316 185.944L100.452 166.829L44.3789 167.907Z" fill="#F5F5F5"/>
<path d="M93.8297 185.944L93.6465 181.625L146.618 178.556V182.123L93.8297 185.944Z" fill="#E0E0E0"/>
<path d="M142.686 180.582C142.686 180.684 131.793 181.537 118.349 182.485C104.905 183.433 93.9929 184.129 93.9863 184.034C93.9798 183.938 104.872 183.085 118.323 182.13C131.774 181.175 142.68 180.486 142.686 180.582Z" fill="#373737"/>
<path d="M93.7294 182.123L60.0635 168.214L59.998 170.833L93.8276 185.869L93.7294 182.123Z" fill="#E0E0E0"/>
<path d="M60.0684 168.214L93.7343 182.124L146.621 178.556L106.531 166.372L60.0684 168.214Z" fill="white"/>
<path d="M60.0684 168.207L106.518 166.215H106.563L146.673 178.365C146.716 178.379 146.751 178.41 146.772 178.45C146.792 178.491 146.797 178.539 146.785 178.583C146.775 178.618 146.756 178.649 146.729 178.673C146.702 178.696 146.669 178.71 146.634 178.713H146.163L93.7474 182.219H93.682L60.0684 168.173L93.7866 181.987H93.7278L146.124 178.406H146.602L146.562 178.754L106.478 166.543H106.524L60.0684 168.207Z" fill="#373737"/>
<path d="M93.8322 185.944C93.6054 184.681 93.6054 183.386 93.8322 182.124C94.0589 183.386 94.0589 184.681 93.8322 185.944Z" fill="#373737"/>
<path d="M129.906 175.957C129.906 176.052 121.801 176.639 111.785 177.239C101.769 177.839 93.6433 178.269 93.6367 178.174C93.6302 178.078 101.749 177.491 111.765 176.884C121.781 176.277 129.9 175.854 129.906 175.957Z" fill="#373737"/>
<path d="M125.462 174.442C125.462 174.538 117.356 175.125 107.34 175.732C97.3239 176.339 89.2051 176.762 89.2051 176.666C89.2051 176.571 97.3174 175.984 107.333 175.377C117.349 174.77 125.462 174.347 125.462 174.442Z" fill="#373737"/>
<path d="M121.015 172.908C121.015 173.003 112.902 173.59 102.886 174.19C92.8702 174.79 84.7448 175.22 84.7383 175.125C84.7317 175.029 92.8506 174.442 102.867 173.835C112.883 173.228 121.008 172.833 121.015 172.908Z" fill="#373737"/>
<path d="M116.567 171.42C116.567 171.516 108.454 172.102 98.4383 172.709C88.4222 173.317 80.3034 173.74 80.2969 173.637C80.2903 173.535 88.4026 172.955 98.4187 172.355C108.435 171.754 116.56 171.325 116.567 171.42Z" fill="#373737"/>
<path d="M112.104 169.906C112.104 170.008 103.991 170.588 93.982 171.195C83.9724 171.802 75.8405 172.225 75.834 172.13C75.8274 172.034 83.9397 171.448 93.9623 170.84C103.985 170.233 112.104 169.81 112.104 169.906Z" fill="#373737"/>
<path d="M107.672 168.398C107.672 168.494 99.5664 169.08 89.5503 169.687C79.5343 170.295 71.4089 170.718 71.4023 170.615C71.3958 170.513 79.5081 169.933 89.5307 169.333C99.5533 168.732 107.666 168.303 107.672 168.398Z" fill="#373737"/>
<path d="M154.102 115.4C154.102 115.4 132.827 96.0062 130.099 93.3526C119.402 82.9085 111.46 82.4378 111.46 82.4378L101.83 80.2617L75.6089 76.039L51.7103 79.9342L43.8598 115.053L43.2971 132.748L40.5625 165.977H123.452L122.994 158.609L125.185 126.383L124.891 132.625L135.156 141.814L154.102 115.4Z" fill="#5D92A0"/>
<path d="M126.066 111.219C126.075 111.339 126.075 111.46 126.066 111.58C126.066 111.853 126.066 112.201 126.027 112.631C125.975 113.579 125.903 114.889 125.818 116.492C125.615 119.78 125.34 124.262 125.033 129.214C124.725 134.167 124.378 138.642 124.169 141.93C124.045 143.533 123.947 144.836 123.875 145.784C123.835 146.214 123.803 146.562 123.783 146.828C123.775 146.95 123.758 147.071 123.731 147.19C123.715 147.067 123.715 146.943 123.731 146.821C123.731 146.555 123.731 146.207 123.777 145.771C123.822 144.829 123.894 143.519 123.979 141.916C124.182 138.628 124.463 134.146 124.764 129.194C125.065 124.241 125.419 119.766 125.634 116.478C125.752 114.882 125.857 113.572 125.929 112.631C125.929 112.194 125.994 111.846 126.02 111.58C126.022 111.458 126.037 111.337 126.066 111.219Z" fill="#373737"/>
<g opacity="0.3">
<path d="M126.297 107.978C126.297 108.401 124.917 129.808 124.891 130.21C128.365 123.156 129.49 115.175 126.297 107.978Z" fill="#373737"/>
</g>
<g opacity="0.3">
<path d="M42.502 142.544C48.3899 137.346 49.0441 129.412 48.3899 121.396L43.3459 131.977L42.502 142.544Z" fill="#373737"/>
</g>
<path d="M10.043 123.252C10.5075 123.252 38.1154 141.562 38.1154 141.562L57.3166 110.516L51.7296 79.9615C51.7296 79.9615 40.3201 81.7625 35.3284 87.4655C32.2274 90.9786 10.043 123.252 10.043 123.252Z" fill="#5D92A0"/>
<path d="M56.1015 107.494C56.177 107.098 56.2731 106.706 56.3894 106.321C56.6514 105.257 56.848 104.177 56.9782 103.087C57.1714 101.473 57.1999 99.843 57.0632 98.2231C56.9257 96.2445 56.4097 94.3147 55.5454 92.5474C54.6182 90.8135 53.3943 89.2714 51.9342 87.9973C50.7448 86.9531 49.4241 86.0832 48.0089 85.4119C46.6834 84.8238 45.3079 84.367 43.9004 84.0475C44.0003 84.034 44.1014 84.034 44.2013 84.0475C44.3976 84.0475 44.692 84.0953 45.0584 84.1771C46.1045 84.3869 47.1264 84.7117 48.107 85.1458C49.5641 85.7904 50.9238 86.6521 52.1435 87.704C53.6505 89.0146 54.9049 90.6119 55.8398 92.411C56.7263 94.2211 57.2473 96.2015 57.3707 98.2299C57.4947 99.8729 57.4398 101.525 57.2072 103.155C57.0605 104.254 56.8263 105.338 56.5071 106.396C56.4279 106.683 56.3317 106.966 56.2193 107.241C56.1539 107.419 56.1146 107.501 56.1015 107.494Z" fill="#373737"/>
<path d="M92.5255 7.3648L91.3021 7.30341C78.0543 7.39209 70.7205 19.1732 71.1784 32.9804L72.3364 78.686L73.3112 80.2618C76.5052 85.4004 81.1402 89.3879 86.5852 91.6814C88.2321 92.3714 90.0164 92.6286 91.7811 92.4305C93.5457 92.2323 95.2366 91.5849 96.7049 90.5451C98.1731 89.5054 99.3737 88.1052 100.201 86.4678C101.028 84.8305 101.457 83.0062 101.449 81.1555C101.449 81.1555 101.449 77.5058 101.488 77.5058C101.528 77.5058 114.291 76.1415 115.103 62.9073C115.502 56.5154 115.286 43.288 114.959 31.3159C114.786 25.1159 112.383 19.2105 108.227 14.7731C104.071 10.3357 98.4657 7.69108 92.5255 7.3648Z" fill="#FFBF9D"/>
<path d="M101.543 77.4852C101.543 77.4852 93.5153 77.5398 85.2656 71.4957C85.2656 71.4957 88.7461 81.6601 101.471 81.1553L101.543 77.4852Z" fill="#FF9A6C"/>
<path d="M111.15 42.0526C111.131 42.5448 110.928 43.0098 110.584 43.3477C110.241 43.6857 109.784 43.8697 109.311 43.8604C109.08 43.8677 108.849 43.8265 108.633 43.7394C108.417 43.6522 108.22 43.5209 108.054 43.353C107.887 43.1851 107.755 42.9842 107.664 42.762C107.573 42.5398 107.526 42.301 107.525 42.0595C107.544 41.5667 107.747 41.101 108.09 40.762C108.434 40.423 108.891 40.2374 109.364 40.2449C109.596 40.2366 109.827 40.2773 110.044 40.3645C110.261 40.4518 110.459 40.5837 110.626 40.7525C110.792 40.9213 110.925 41.1235 111.015 41.3469C111.105 41.5703 111.151 41.8103 111.15 42.0526Z" fill="#373737"/>
<path d="M111.986 36.3841C111.751 36.6228 110.429 35.4836 108.48 35.3881C106.53 35.2926 105.052 36.2272 104.849 35.968C104.751 35.852 104.999 35.4154 105.647 34.9788C106.522 34.4127 107.544 34.1434 108.571 34.2079C109.585 34.2587 110.557 34.6459 111.345 35.3131C111.921 35.8247 112.098 36.2818 111.986 36.3841Z" fill="#373737"/>
<path d="M93.1302 41.5276C93.1098 42.0204 92.9054 42.4854 92.5607 42.8231C92.216 43.1609 91.7583 43.3448 91.2853 43.3354C91.0541 43.3427 90.8239 43.3015 90.6083 43.2143C90.3927 43.1271 90.196 42.9956 90.0301 42.8276C89.8641 42.6596 89.7322 42.4586 89.6422 42.2365C89.5521 42.0144 89.5058 41.7756 89.5059 41.5345C89.5229 41.0411 89.7252 40.5744 90.069 40.235C90.4129 39.8956 90.8708 39.7106 91.3442 39.7199C91.5762 39.7126 91.8073 39.7539 92.0237 39.8415C92.2402 39.9291 92.4375 40.0611 92.6041 40.2297C92.7706 40.3983 92.903 40.6 92.9934 40.823C93.0838 41.046 93.1303 41.2856 93.1302 41.5276Z" fill="#373737"/>
<path d="M92.8444 35.8252C92.6023 36.0572 91.2808 34.9248 89.3313 34.8224C87.3817 34.7201 85.9032 35.6615 85.7004 35.4023C85.6022 35.2863 85.8508 34.8565 86.505 34.4131C87.3784 33.8492 88.3973 33.5801 89.4228 33.6423C90.4378 33.6976 91.4105 34.0842 92.2033 34.7474C92.779 35.259 92.9556 35.7161 92.8444 35.8252Z" fill="#373737"/>
<path d="M99.0636 51.8358C99.0636 51.7198 100.287 51.563 102.263 51.4061C102.766 51.4061 103.244 51.3037 103.342 50.9558C103.411 50.4202 103.322 49.8754 103.087 49.3936L101.811 45.3415C100.045 39.5976 98.7954 34.8906 99.0178 34.8156C99.2403 34.7406 100.85 39.3384 102.616 45.0823L103.833 49.1344C104.11 49.7773 104.165 50.5003 103.99 51.1809C103.905 51.3538 103.783 51.5048 103.635 51.6228C103.487 51.7408 103.315 51.8229 103.133 51.8631C102.851 51.9255 102.563 51.9507 102.276 51.9382C100.326 52.0064 99.0702 51.9518 99.0636 51.8358Z" fill="#373737"/>
<path d="M93.7863 29.4933C93.4919 29.9981 91.6273 29.35 89.3245 29.1727C87.0217 28.9953 85.0852 29.2614 84.8758 28.7156C84.7842 28.4564 85.1964 28.0334 86.0338 27.631C87.1338 27.1871 88.3161 27.0099 89.4915 27.1127C90.6668 27.2155 91.8043 27.5957 92.818 28.2245C93.59 28.7361 93.9302 29.2477 93.7863 29.4933Z" fill="#373737"/>
<path d="M112.38 30.4079C111.954 30.8582 110.384 30.3124 108.454 30.2169C106.524 30.1214 104.909 30.3943 104.529 29.8963C104.372 29.6575 104.647 29.2141 105.366 28.7912C106.361 28.2819 107.468 28.0627 108.572 28.1568C109.672 28.2068 110.738 28.5702 111.653 29.2073C112.36 29.7053 112.563 30.1896 112.38 30.4079Z" fill="#373737"/>
<path d="M71.7312 42.2035C71.5218 42.0944 63.1478 39.0451 62.9712 48.1043C62.7946 57.1636 72.1957 55.6765 72.1957 55.4172C72.1957 55.158 71.7312 42.2035 71.7312 42.2035Z" fill="#FFBF9D"/>
<path d="M68.9862 51.7329C68.9862 51.7329 68.8357 51.8421 68.574 51.958C68.3946 52.0355 68.2023 52.0754 68.0081 52.0754C67.8139 52.0754 67.6217 52.0355 67.4422 51.958C66.5329 51.5897 65.7871 50.0548 65.7805 48.4176C65.7711 47.6403 65.9299 46.8708 66.245 46.1664C66.3311 45.8842 66.4823 45.6284 66.6853 45.4214C66.8884 45.2145 67.137 45.0627 67.4095 44.9794C67.584 44.9357 67.7676 44.9568 67.9287 45.039C68.0899 45.1211 68.2186 45.2593 68.2927 45.4296C68.4039 45.682 68.3451 45.8662 68.3909 45.8799C68.4367 45.8935 68.5806 45.7298 68.5152 45.3546C68.4701 45.131 68.355 44.9295 68.1881 44.7816C68.0711 44.6847 67.9368 44.6131 67.793 44.571C67.6493 44.5288 67.4989 44.5169 67.3507 44.536C66.994 44.6016 66.6593 44.7615 66.3787 45.0004C66.0981 45.2392 65.8809 45.5491 65.7478 45.9003C65.3617 46.6778 65.164 47.5421 65.1721 48.4176C65.1721 50.2458 66.0553 51.9717 67.3049 52.3742C67.5375 52.4498 67.7835 52.4701 68.0246 52.4335C68.2658 52.3969 68.496 52.3044 68.6983 52.1627C68.9666 51.9512 69.0189 51.7534 68.9862 51.7329Z" fill="#FF9A6C"/>
<path d="M92.9227 53.0227C93.2236 53.0227 93.2171 55.0692 94.8853 56.5768C96.5536 58.0844 98.7125 57.8524 98.7256 58.1458C98.7256 58.2754 98.248 58.5483 97.3517 58.5619C96.1821 58.5745 95.0461 58.1539 94.1461 57.3749C93.2814 56.6295 92.7279 55.5632 92.6021 54.4006C92.5629 53.5275 92.7918 53.009 92.9227 53.0227Z" fill="#373737"/>
<path d="M132.648 18.9546C132.506 18.4174 132.171 17.9579 131.713 17.6721C130.725 17.0377 129.58 17.0922 128.442 17.0513C125.675 16.9295 122.97 16.1551 120.532 14.7865C121.402 14.3669 122.203 13.8075 122.907 13.1288C124.346 11.6962 125.197 9.47917 124.595 7.50769C124.559 7.31718 124.481 7.13794 124.368 6.98407C124.254 6.83018 124.108 6.70586 123.941 6.62087C123.378 6.42986 122.874 6.99606 122.469 7.44629C121.16 8.92661 119.93 9.54739 118.007 9.29499C116.851 9.19423 115.733 8.821 114.736 8.20351C114.696 8.16258 114.664 8.11482 114.631 8.07389C114.186 7.57591 113.754 7.10521 113.323 6.64133C110.123 3.18271 107.363 0.774628 104.491 -0.507859C100.284 -2.38384 93.1989 -3.23655 88.7502 -2.15872C84.3016 -1.08088 80.2454 2.6165 79.5323 7.31668C77.0921 5.07233 73.3696 5.00412 70.321 6.20474L70.2425 6.16381C66.8536 7.33715 64.8583 11.0072 63.7919 14.5614C63.733 14.7592 63.6807 14.9502 63.6283 15.148C62.455 17.0155 60.8688 18.5619 59.003 19.6572C58.6694 19.8482 58.2899 20.0802 58.2441 20.469C58.2515 20.6634 58.3064 20.8526 58.4038 21.0186C58.5011 21.1846 58.6376 21.3218 58.8002 21.4172C59.6014 22.0363 60.5241 22.4626 61.5021 22.6656C61.1792 23.5108 60.7874 24.3255 60.3311 25.101C59.9386 25.7831 59.4741 26.5608 59.7881 27.2635C59.9383 27.5193 60.1594 27.7215 60.4223 27.8433C60.6852 27.9651 60.9773 28.0008 61.2601 27.9456C61.8277 27.836 62.367 27.6036 62.8433 27.2635L61.6592 30.0467C62.8762 30.2907 64.1314 30.2323 65.3228 29.8762C65.977 33.2393 66.3761 39.4266 67.1546 41.7392C69.464 41.8347 70.0266 41.5891 71.1845 42.0189C72.6762 42.5714 72.0481 45.3411 74.0238 44.5907C75.0248 44.2155 76.6407 40.3066 76.994 39.2561C79.357 32.2593 80.2495 24.8145 79.6108 17.4265C81.0418 15.9036 82.7411 14.6829 84.6156 13.8314L84.4651 13.9679C88.0437 12.7604 92.0933 11.5871 95.4298 13.4017C98.0467 14.8138 99.4925 17.6789 101.403 19.9847C105.021 24.3506 109.168 26.7314 114.69 27.0997C115.102 31.1177 115.115 37.6666 115.22 41.4254L118.439 34.017C118.694 33.5804 118.91 33.1438 119.093 32.7072L119.165 32.5776C119.481 31.8587 119.832 31.1575 120.218 30.4765L120.251 30.5106C122.155 32.3388 125.072 29.6783 123.587 27.4681C123.295 27.0257 122.937 26.6343 122.527 26.3084C122.959 26.7592 123.494 27.0869 124.082 27.2601C124.669 27.4333 125.29 27.4462 125.884 27.2976C126.472 27.1248 126.989 26.7543 127.354 26.2436C127.72 25.7329 127.914 25.1106 127.905 24.4734C127.866 24.0434 127.719 23.6317 127.479 23.2797C127.239 22.9277 126.914 22.6477 126.538 22.4678C128.12 22.6402 129.716 22.3122 131.117 21.5264C132.033 20.9874 132.929 20.1347 132.648 18.9546Z" fill="#373737"/>
<path d="M132.649 18.9545C132.705 19.1209 132.727 19.2973 132.715 19.4729C132.674 19.9986 132.439 20.4874 132.061 20.8373C131.439 21.4053 130.711 21.8307 129.921 22.0857C128.844 22.463 127.703 22.6001 126.572 22.4881V22.3722C126.888 22.5331 127.169 22.7623 127.394 23.0445C127.62 23.3267 127.786 23.6556 127.88 24.0094C127.969 24.4159 127.964 24.8385 127.866 25.2428C127.768 25.647 127.58 26.0215 127.318 26.3356C127.039 26.6907 126.688 26.9757 126.289 27.1694C125.89 27.3631 125.455 27.4605 125.015 27.4544C124.052 27.4323 123.133 27.0301 122.444 26.3288L122.555 26.1923C123.061 26.5899 123.484 27.0914 123.798 27.6658C123.955 27.9785 124.044 28.3231 124.06 28.6754C124.06 29.0377 123.979 29.3951 123.824 29.7192C123.663 30.0519 123.437 30.3455 123.159 30.5806C122.882 30.8157 122.56 30.9871 122.215 31.0835C121.848 31.1801 121.463 31.1769 121.098 31.0742C120.732 30.9715 120.398 30.7727 120.128 30.4969H120.278L119.297 32.5979L118.551 34.0442L118.374 34.3852V33.9964V33.9623L118.577 34.0032L115.372 41.4321L115.162 41.9164V41.3843C115.025 37.0116 115.077 32.175 114.619 27.0996L114.744 27.2224C111.991 27.0734 109.307 26.2758 106.893 24.8894C104.379 23.3538 102.185 21.3079 100.442 18.8726C99.5723 17.6101 98.6307 16.4027 97.6227 15.2571C96.5909 14.1005 95.2627 13.2766 93.7956 12.8831C92.2888 12.5361 90.7292 12.5199 89.2161 12.8354C87.6624 13.1434 86.1319 13.5675 84.6366 14.1042L83.8907 14.3566L84.4861 13.8177L84.6431 13.6813L84.8066 13.961C82.9542 14.8097 81.2735 16.0181 79.8542 17.5219L79.9 17.3855C80.4206 23.4027 79.9358 29.4686 78.4673 35.313C78.0813 36.8206 77.643 38.3077 77.1131 39.8017C76.5678 41.2941 75.8587 42.7156 74.9999 44.038C74.614 44.7202 73.528 45.2932 72.7952 44.5633C72.5499 44.2277 72.3597 43.8519 72.2326 43.4513C72.1143 43.0924 71.9298 42.761 71.6896 42.4758C71.6271 42.4175 71.5616 42.3629 71.4933 42.3121L71.2644 42.1961C71.0908 42.1312 70.9139 42.0766 70.7345 42.0324C70.3659 41.9588 69.9909 41.9268 69.6157 41.9369C68.8503 41.9369 68.0587 41.9369 67.2802 41.9369H67.1624V41.8209C66.8169 40.5984 66.5696 39.348 66.4232 38.0826C66.0372 35.3539 65.8017 32.6252 65.3241 29.8965L65.5334 30.033C64.3163 30.3947 63.0349 30.4554 61.7913 30.2103L61.582 30.1694L61.667 29.9648L62.8511 27.1747L63.0932 27.3998C62.5039 27.8628 61.7898 28.1206 61.0521 28.1365C60.6591 28.1066 60.2897 27.9298 60.0118 27.6385C59.8799 27.4834 59.7837 27.2989 59.7304 27.0991C59.6771 26.8994 59.6682 26.6896 59.7044 26.4857C59.907 25.773 60.2209 25.1 60.6334 24.4937C60.9649 23.8751 61.2577 23.2348 61.51 22.5768L61.6343 22.8156C60.6443 22.6088 59.709 22.1806 58.8931 21.5604C58.6704 21.4014 58.4829 21.1943 58.3436 20.9532C58.2675 20.8144 58.2313 20.6557 58.2394 20.496C58.2475 20.3363 58.2996 20.1824 58.3894 20.0528C58.5553 19.8349 58.7653 19.6578 59.0043 19.5343C59.2202 19.4047 59.423 19.2887 59.6586 19.1523C61.2669 18.1039 62.6411 16.7082 63.6885 15.0593V15.107C64.1881 13.168 64.9833 11.3254 66.0437 9.64963C67.0802 7.97342 68.612 6.69471 70.4073 6.00683H70.4728H70.5251L70.6036 6.04094H70.4793C72.0404 5.42052 73.7135 5.16663 75.3794 5.29737C77.0244 5.4122 78.5907 6.07456 79.8477 7.187L79.5925 7.2825C79.9336 5.26341 80.8186 3.38717 82.144 1.87286C83.4163 0.404301 84.9786 -0.759353 86.7235 -1.538C88.4124 -2.27923 90.2174 -2.69081 92.0488 -2.75227C93.7956 -2.84683 95.547 -2.78063 97.2826 -2.55444C98.9606 -2.35419 100.621 -2.0166 102.248 -1.54482C103.817 -1.10156 105.321 -0.435927 106.716 0.433477C109.247 2.17533 111.561 4.23757 113.605 6.57304L113.416 6.70947L113.618 6.5935C114.129 7.16652 114.587 7.65087 115.025 8.15568C115.865 8.68885 116.804 9.03276 117.779 9.16529C118.695 9.3798 119.649 9.33027 120.54 9.02203C121.368 8.65574 122.103 8.09278 122.686 7.37801C122.968 6.9991 123.35 6.71452 123.785 6.55939C123.899 6.53812 124.017 6.54232 124.129 6.57171C124.242 6.6011 124.348 6.65502 124.439 6.72993C124.611 6.88738 124.744 7.08649 124.825 7.30978C125.116 8.13706 125.177 9.03325 125.002 9.89521C124.833 10.7008 124.518 11.4651 124.073 12.1464C123.239 13.3555 122.109 14.3095 120.802 14.9092V14.7728C122.469 15.7071 124.262 16.3718 126.12 16.7442C126.861 16.8949 127.611 16.9929 128.364 17.0376C129.019 17.0853 129.673 17.0376 130.229 17.1399C131.087 17.1742 131.898 17.5589 132.486 18.2109C132.624 18.3838 132.732 18.5799 132.807 18.7908C132.831 18.8614 132.849 18.9346 132.859 19.009C132.783 18.7229 132.644 18.4591 132.453 18.2382C131.867 17.6067 131.065 17.2415 130.222 17.2218C129.673 17.1604 129.045 17.174 128.358 17.1399C127.601 17.0968 126.847 17.0034 126.101 16.8602C124.227 16.4998 122.418 15.8418 120.736 14.9092L120.605 14.8342L120.736 14.7728C122.021 14.1778 123.13 13.2358 123.948 12.0441C124.384 11.3863 124.689 10.644 124.845 9.86111C125.01 9.03527 124.951 8.17763 124.675 7.38482C124.627 7.18951 124.513 7.01861 124.355 6.90337C124.196 6.78813 124.003 6.73625 123.811 6.75723C123.417 6.9079 123.072 7.17298 122.817 7.52126C122.215 8.25917 121.458 8.84272 120.605 9.22669C119.678 9.55071 118.683 9.60728 117.727 9.39041C116.722 9.2527 115.755 8.89966 114.888 8.35351C114.456 7.8487 113.998 7.36436 113.481 6.79815V6.76404L113.684 6.64808L114.03 7.33025L113.494 6.75723C111.462 4.45001 109.161 2.41724 106.644 0.706352C105.267 -0.14889 103.783 -0.803055 102.235 -1.23785C100.62 -1.70246 98.9731 -2.03546 97.3087 -2.23382C95.5724 -2.45126 93.8214 -2.51288 92.075 -2.418C90.2747 -2.35493 88.5007 -1.94799 86.8413 -1.21738C85.1388 -0.454088 83.6145 0.683824 82.373 2.11845C81.0874 3.59191 80.2298 5.41592 79.9 7.37801L79.8542 7.66452L79.6449 7.47351C78.439 6.40365 76.9334 5.76946 75.3532 5.66574C73.734 5.53917 72.1079 5.78605 70.5905 6.38885H70.5317H70.4662L70.3943 6.34792H70.512C68.7049 6.9684 67.1529 8.20924 66.1091 9.86793C65.0677 11.5091 64.2878 13.3152 63.7998 15.2162C62.7294 16.9156 61.3217 18.3556 59.6717 19.4388C59.257 19.6521 58.8719 19.9229 58.5268 20.2438C58.2847 20.5781 58.5857 21.001 58.9651 21.2739C59.743 21.8655 60.6365 22.2708 61.582 22.4609L61.7782 22.5018L61.7063 22.6996C61.4461 23.3729 61.1468 24.029 60.81 24.6643C60.4194 25.2337 60.119 25.8647 59.9203 26.5334C59.8915 26.6844 59.896 26.8402 59.9334 26.9891C59.9708 27.138 60.0401 27.2761 60.1361 27.393C60.3588 27.6182 60.6509 27.7535 60.9605 27.775C61.6278 27.7493 62.2716 27.5112 62.8053 27.0928L63.2633 26.7995L63.0474 27.3111C62.6483 28.2389 62.2558 29.1666 61.8567 30.1012L61.739 29.8556C62.9306 30.0882 64.1577 30.0298 65.3241 29.6851L65.5073 29.6373L65.54 29.8215C66.0241 32.5502 66.2596 35.2789 66.6456 38.0076C66.788 39.2495 67.0287 40.4771 67.3652 41.6777L67.2082 41.5549C67.9802 41.589 68.7522 41.5549 69.5307 41.5549C69.9299 41.5454 70.329 41.5797 70.7214 41.6572C70.9161 41.706 71.1082 41.7651 71.2971 41.8346L71.5915 41.9846C71.6785 42.0497 71.7615 42.1203 71.8401 42.1961C72.4485 42.8442 72.4943 43.7583 72.9588 44.2904C73.0772 44.4049 73.2247 44.4812 73.3837 44.5103C73.5428 44.5393 73.7064 44.5198 73.8551 44.4541C74.1875 44.3306 74.4677 44.0891 74.6467 43.7719C75.4868 42.4747 76.1805 41.0807 76.714 39.6175C77.2374 38.1645 77.6757 36.6637 78.0617 35.1766C79.5172 29.3716 80.0018 23.3485 79.4944 17.3718L79.5468 17.3173C80.9938 15.7808 82.7107 14.5487 84.6038 13.6881L85.5655 13.2515L84.7281 13.961L84.5777 14.0974L84.4207 13.8177C85.9399 13.2772 87.4944 12.8509 89.0721 12.542C90.6287 12.2172 92.2332 12.2358 93.7825 12.5966C95.3053 13.0035 96.6837 13.8583 97.7536 15.0593C98.7665 16.2179 99.7146 17.4364 100.593 18.7089C102.308 21.1141 104.468 23.1367 106.945 24.6574C109.337 26.0183 111.995 26.7929 114.717 26.9223H114.835V27.0382C115.293 32.1477 115.228 36.9775 115.359 41.3639L115.13 41.3161L118.355 33.9145L118.538 33.5052V33.9555L118.342 33.9009L119.088 32.4683V32.5161V32.4752L120.147 30.3672L120.206 30.2513L120.304 30.3468C120.55 30.5993 120.853 30.7821 121.185 30.8776C121.517 30.9731 121.867 30.9783 122.202 30.8925C122.523 30.8025 122.822 30.6422 123.079 30.4222C123.336 30.2023 123.546 29.9277 123.693 29.6168C123.841 29.3221 123.917 28.9943 123.916 28.6618C123.905 28.3402 123.824 28.0253 123.68 27.7409C123.383 27.1863 122.977 26.7029 122.49 26.3219L122.601 26.1923C123.257 26.8656 124.134 27.2534 125.054 27.277C125.471 27.2842 125.885 27.1936 126.265 27.0118C126.644 26.8299 126.979 26.5615 127.246 26.2264C127.496 25.9311 127.677 25.5782 127.772 25.1966C127.868 24.815 127.876 24.4153 127.795 24.0298C127.703 23.6908 127.543 23.376 127.326 23.1067C127.108 22.8373 126.837 22.6194 126.533 22.4677L126.232 22.3176L126.559 22.3517C127.677 22.4735 128.807 22.3479 129.876 21.9833C130.658 21.7422 131.383 21.3306 132.002 20.7759C132.379 20.4392 132.614 19.9614 132.656 19.4456C132.671 19.2821 132.669 19.1175 132.649 18.9545Z" fill="#455A64"/>
<path d="M83.5213 8.93323C83.054 9.29002 82.6164 9.68707 82.2128 10.1202C81.1779 11.3625 80.472 12.8651 80.1651 14.4793C79.9224 15.583 79.7908 16.7102 79.7726 17.8424C79.7399 19.0635 79.7726 20.3733 79.8642 21.7581C79.9527 23.2074 79.9527 24.6611 79.8642 26.1103C79.8065 26.8796 79.695 27.6434 79.5306 28.3956C79.4007 29.2027 79.074 29.9615 78.5819 30.599C78.3568 30.8536 78.0716 31.0423 77.7549 31.1464C77.4381 31.2505 77.1008 31.2664 76.7763 31.1925C76.1542 31.0553 75.593 30.7075 75.18 30.2034C74.5109 29.1935 74.1113 28.0164 74.022 26.7925L74.2903 26.8334C73.8829 27.8177 73.3432 28.7365 72.6875 29.5621C72.049 30.3326 71.153 30.8204 70.1818 30.9265C69.7297 30.9659 69.2761 30.8713 68.8734 30.6536C68.4986 30.442 68.195 30.1159 68.0033 29.719C67.82 29.3562 67.7342 28.9484 67.7547 28.5389C67.7795 28.1557 67.9323 27.7936 68.1864 27.5156L68.3173 27.6452C67.5379 28.5226 66.5907 29.2197 65.5369 29.6918C65.2599 29.8186 64.9759 29.9279 64.6864 30.0192C64.5866 30.0537 64.4835 30.0766 64.3789 30.0874L64.6733 29.9646C64.863 29.8896 65.1443 29.7804 65.4976 29.6031C66.5211 29.0939 67.4356 28.3746 68.1864 27.4883L68.3173 27.618C68.1019 27.8917 67.9735 28.2286 67.9501 28.5819C67.9267 28.9352 68.0093 29.2873 68.1864 29.5894C68.366 29.9403 68.6415 30.2276 68.978 30.4149C69.3441 30.6064 69.7544 30.6867 70.1622 30.6468C71.0672 30.5456 71.9007 30.0866 72.4912 29.3643C73.1279 28.551 73.6479 27.6457 74.0351 26.6765L74.2314 26.2604L74.3034 26.7175C74.3892 27.884 74.7683 29.0063 75.4024 29.9714C75.7713 30.4213 76.2729 30.7308 76.8286 30.8514C77.1043 30.9151 77.3911 30.9027 77.6608 30.8153C77.9304 30.728 78.1735 30.5688 78.366 30.3535C78.8183 29.7588 79.1198 29.055 79.2427 28.3069C79.4044 27.5679 79.5159 26.818 79.5763 26.0626C79.6613 24.6246 79.6613 23.1825 79.5763 21.7444C79.524 20.3801 79.4651 19.0498 79.5109 17.8151C79.5402 16.6651 79.6872 15.5217 79.9493 14.4042C80.2834 12.7671 81.031 11.2527 82.1147 10.0179C82.5199 9.57429 82.9958 9.2073 83.5213 8.93323Z" fill="#455A64"/>
<path d="M122.601 22.7407C122.601 22.7407 122.601 22.7407 122.503 22.8294L122.176 23.0614C122.005 23.1945 121.823 23.311 121.633 23.4093C121.38 23.5634 121.117 23.7001 120.847 23.8186C119.124 24.5873 117.244 24.8945 115.378 24.7122C112.603 24.459 109.957 23.3713 107.763 21.581C105.118 19.3695 102.93 16.6218 101.332 13.5041C100.442 11.8737 99.7229 10.2092 98.9247 8.67432C98.197 7.17924 97.2673 5.80084 96.1639 4.58128C95.1697 3.47775 93.9258 2.6521 92.5461 2.18002C91.923 1.98216 91.2739 1.88779 90.6227 1.90034C90.0188 1.92143 89.4203 2.02697 88.8432 2.21413C87.0804 2.79811 85.5928 4.05223 84.6759 5.72732C84.3722 6.35662 84.1395 7.02048 83.9824 7.70563C83.9824 7.70563 83.9824 7.65788 83.9824 7.56237C83.9824 7.46687 84.0217 7.32361 84.0478 7.15989C84.1637 6.64478 84.3371 6.14565 84.5647 5.67276C84.9419 4.92932 85.4374 4.25807 86.0301 3.68763C86.8176 2.93128 87.7495 2.35707 88.7647 2.00266C89.3585 1.80633 89.9743 1.69167 90.5965 1.66157C91.2753 1.63981 91.953 1.72959 92.605 1.92762C94.0302 2.40592 95.3171 3.25046 96.3471 4.38345C97.4741 5.61935 98.4238 7.01863 99.1668 8.53788C99.978 10.0932 100.698 11.7509 101.581 13.3608C103.154 16.4473 105.308 19.1712 107.914 21.3696C110.065 23.1383 112.658 24.2273 115.385 24.5076C117.22 24.704 119.074 24.4348 120.789 23.7231C121.409 23.4296 122.014 23.1017 122.601 22.7407Z" fill="#455A64"/>
<path d="M123.875 16.9361C123.875 16.9361 123.725 17.0725 123.411 17.2567C122.975 17.5213 122.52 17.7494 122.05 17.9389C121.35 18.2283 120.628 18.4565 119.891 18.621C118.989 18.8149 118.071 18.92 117.15 18.9348C116.228 18.9404 115.308 18.8536 114.402 18.6756C113.663 18.5283 112.936 18.3161 112.23 18.0412C111.756 17.8476 111.294 17.6197 110.85 17.359C110.542 17.1748 110.372 17.0657 110.385 17.0452C110.399 17.0247 111.105 17.3863 112.302 17.8024C113.003 18.0476 113.72 18.2368 114.448 18.3686C115.339 18.5229 116.24 18.6005 117.144 18.6006C118.048 18.5804 118.949 18.4846 119.839 18.314C120.563 18.1647 121.275 17.9618 121.972 17.7069C123.169 17.2908 123.875 16.8883 123.875 16.9361Z" fill="#455A64"/>
<path d="M96.0952 152.79L113.981 151.89C113.981 151.89 117.455 153.936 118.358 159.871C119.261 165.806 118.358 165.786 118.358 165.786L109.35 168.958L90.2334 168.494L83.3184 159.421L88.5521 156.201L96.0952 152.79Z" fill="#FFBF9D"/>
<path d="M172.218 141.466C171.27 139.747 165.552 132.727 152.009 118.333L135.837 140.92L140.371 144.024L110.617 152.79L113.103 167.927L162.425 167.88C168.777 167.661 180.494 156.44 172.218 141.466Z" fill="#FFBF9D"/>
<path d="M165.793 140.402C165.412 140.431 165.03 140.431 164.648 140.402C163.909 140.402 162.849 140.402 161.534 140.402C158.115 140.483 154.705 140.809 151.329 141.378C147.952 141.953 144.616 142.767 141.345 143.813C140.089 144.215 139.075 144.563 138.382 144.816C138.028 144.964 137.662 145.08 137.289 145.164C137.627 144.979 137.977 144.819 138.336 144.686C138.99 144.393 140.017 144.004 141.267 143.574C147.811 141.324 154.657 140.173 161.547 140.163C162.856 140.163 163.929 140.197 164.661 140.245C165.042 140.267 165.42 140.32 165.793 140.402Z" fill="#FF9A6C"/>
<path d="M98.7788 159.032C98.6694 158.762 98.4933 158.526 98.2685 158.35L95.1675 155.471L93.375 161.051C94.1416 161.655 95.1044 161.922 96.0573 161.795C97.0095 161.658 97.8708 161.133 98.4517 160.335C98.605 160.163 98.7151 159.954 98.7721 159.726C98.8292 159.499 98.8315 159.26 98.7788 159.032Z" fill="#FF9A6C"/>
<path d="M60.0195 129.978L96.9565 165.765L100.443 167.484L102.373 168.514L101.477 166.768L99.6715 163.268L62.2765 127.454C61.9726 127.159 61.5729 126.995 61.1578 126.995C60.7427 126.995 60.343 127.159 60.0391 127.454C59.8709 127.614 59.7363 127.808 59.6435 128.024C59.5507 128.241 59.5019 128.475 59.5001 128.712C59.4982 128.949 59.5434 129.184 59.6328 129.402C59.7222 129.62 59.8538 129.816 60.0195 129.978Z" fill="#455A64"/>
<path d="M60.709 150.096L63.6072 150.635C63.6072 150.635 78.6083 144.857 80.7542 144.57C82.4093 144.345 90.3057 146.275 93.7992 147.169C94.4887 147.333 95.1025 147.74 95.5366 148.322C95.9707 148.904 96.1982 149.625 96.1806 150.362C96.1806 150.362 96.1806 150.409 96.1806 150.43C96.1359 151.032 95.9275 151.609 95.5799 152.092C95.2324 152.575 94.7599 152.945 94.2179 153.159C94.2179 153.159 97.1619 154.114 95.8339 157.361C94.846 159.769 91.7319 159.407 91.7319 159.407L86.544 159.516C86.544 159.516 87.8524 159.926 89.8609 160.417C90.8045 160.582 91.7194 160.893 92.5759 161.338C92.5759 161.338 95.7095 164.483 92.6805 165.792C91.6894 166.263 90.5997 166.463 89.5141 166.372C89.5141 166.372 90.4235 169.783 87.9963 170.329C85.5692 170.875 69.5671 169.647 69.5671 169.647C68.5283 169.185 67.4226 168.908 66.296 168.828L61.7819 168.501L60.709 150.096Z" fill="#FFBF9D"/>
<path d="M93.9936 153.159C92.6161 153.172 91.2392 153.09 89.8721 152.913C88.499 152.83 87.1329 152.65 85.7832 152.374C87.1587 152.365 88.5332 152.449 89.8982 152.626C91.2728 152.713 92.6407 152.891 93.9936 153.159Z" fill="#FF9A6C"/>
<path d="M77.7915 168.514C77.7915 168.548 77.556 168.459 77.3009 168.187C76.9685 167.814 76.7738 167.33 76.7513 166.822C76.7337 166.312 76.8941 165.813 77.2027 165.417C77.4382 165.124 77.6541 165.021 77.6672 165.049C77.6803 165.076 77.5364 165.24 77.3597 165.533C77.1311 165.915 77.0151 166.358 77.0261 166.809C77.0495 167.259 77.1972 167.692 77.4513 168.057C77.641 168.337 77.8177 168.48 77.7915 168.514Z" fill="#FF9A6C"/>
<path d="M77.5526 162.852C77.5526 162.886 77.2713 162.852 76.8984 162.613C76.6643 162.447 76.4675 162.23 76.3216 161.977C76.1756 161.724 76.0839 161.44 76.0529 161.147C76.0218 160.853 76.052 160.556 76.1415 160.276C76.231 159.996 76.3776 159.739 76.5713 159.523C76.8722 159.196 77.1339 159.114 77.147 159.148C77.1601 159.182 76.9507 159.325 76.7218 159.653C76.4186 160.07 76.2801 160.592 76.3349 161.112C76.3896 161.633 76.6334 162.111 77.0162 162.45C77.3302 162.723 77.5657 162.811 77.5526 162.852Z" fill="#FF9A6C"/>
<path d="M77.4617 156.262C77.4617 156.262 77.1804 156.126 76.9187 155.717C76.5754 155.17 76.4445 154.508 76.5526 153.864C76.6608 153.22 76.9998 152.644 77.501 152.251C77.8804 151.951 78.1552 151.896 78.1552 151.931C78.1552 151.965 77.9131 152.094 77.5925 152.401C77.1787 152.803 76.897 153.33 76.7879 153.909C76.6977 154.493 76.7918 155.091 77.0561 155.614C77.2916 156.017 77.4944 156.228 77.4617 156.262Z" fill="#FF9A6C"/>
<path d="M79.3943 147.797C79.3943 147.797 79.2504 147.728 79.1523 147.51C79.0328 147.219 79.0143 146.893 79.0999 146.589C79.1785 146.283 79.3566 146.016 79.6037 145.832C79.7999 145.695 79.9504 145.689 79.9569 145.723C79.9635 145.757 79.5186 146.05 79.3616 146.664C79.2981 147.04 79.3093 147.425 79.3943 147.797Z" fill="#FF9A6C"/>
<path d="M86.9761 159.394C86.2371 159.523 85.4857 159.557 84.7387 159.496C83.9907 159.529 83.2415 159.467 82.5078 159.312C83.2468 159.182 83.9982 159.148 84.7452 159.209C85.4932 159.181 86.2418 159.243 86.9761 159.394Z" fill="#FF9A6C"/>
<path d="M89.4017 166.359C88.0371 166.204 86.6841 165.954 85.3521 165.608C84.0003 165.36 82.6669 165.013 81.3613 164.571C82.7254 164.733 84.078 164.986 85.4109 165.329C86.7617 165.579 88.0949 165.923 89.4017 166.359Z" fill="#FF9A6C"/>
<path d="M66.3078 168.814H66.5237L67.1779 168.896C68.0156 169.016 68.8354 169.245 69.6181 169.578C71.7182 169.722 74.8519 169.933 78.7379 170.131C80.7006 170.226 82.8529 170.329 85.1754 170.342C85.7576 170.342 86.353 170.342 86.9483 170.301C87.5378 170.325 88.1231 170.191 88.6493 169.913C88.8969 169.74 89.1046 169.512 89.2574 169.246C89.4102 168.979 89.5041 168.68 89.5325 168.371C89.614 167.719 89.574 167.056 89.4147 166.42L89.3624 166.195H89.5848C90.2447 166.248 90.9085 166.184 91.5475 166.004C92.213 165.858 92.8416 165.567 93.3923 165.151C93.6398 164.921 93.8064 164.612 93.8656 164.272C93.9249 163.932 93.8735 163.581 93.7195 163.275C93.4366 162.584 93.0253 161.958 92.5092 161.433C91.5881 161.007 90.6251 160.686 89.6372 160.478L86.5165 159.632L85.3455 159.312H86.5623L91.7568 159.203C92.6303 159.285 93.5095 159.13 94.3083 158.752C94.815 158.477 95.2403 158.062 95.5387 157.554C95.8372 157.046 95.9975 156.463 96.0027 155.867C96.006 155.29 95.8289 154.729 95.4983 154.267C95.1677 153.806 94.7016 153.469 94.1709 153.309L93.7391 153.152L94.1578 152.981C94.6569 152.773 95.0914 152.425 95.4134 151.976C95.7354 151.527 95.9325 150.995 95.983 150.437C96.0156 149.894 95.9047 149.353 95.6625 148.872C95.4202 148.391 95.0559 147.988 94.6092 147.708C94.1478 147.447 93.6482 147.267 93.1307 147.176L91.5867 146.787L88.5512 146.057C86.5885 145.6 84.6259 145.177 82.794 144.877C82.3361 144.809 81.8781 144.74 81.4267 144.713C81.2091 144.693 80.9902 144.693 80.7725 144.713C80.5566 144.747 80.3407 144.795 80.1183 144.85C79.2613 145.075 78.4304 145.354 77.6257 145.62C71.2013 147.81 66.3209 149.713 63.5928 150.689L61.4208 150.259L60.8778 150.143L60.7012 150.096C60.7619 150.087 60.8236 150.087 60.8844 150.096L61.4274 150.177L63.6124 150.553C66.3209 149.495 71.1817 147.565 77.6061 145.327C78.4108 145.061 79.2417 144.781 80.1118 144.543C80.3342 144.481 80.5632 144.433 80.766 144.393C81.0011 144.372 81.2374 144.372 81.4725 144.393C81.937 144.393 82.395 144.488 82.866 144.556C84.724 144.843 86.6474 145.238 88.6427 145.716L91.6783 146.439L93.2288 146.821C93.7799 146.916 94.3111 147.11 94.7989 147.394C95.3006 147.706 95.7097 148.157 95.981 148.696C96.2524 149.235 96.3753 149.843 96.3363 150.45C96.2851 151.074 96.0682 151.671 95.7099 152.173C95.3517 152.676 94.8664 153.064 94.3083 153.295V152.967C94.8926 153.178 95.4106 153.55 95.8064 154.045C96.2097 154.558 96.4129 155.211 96.3756 155.874C96.3452 156.525 96.1705 157.16 95.8653 157.729C95.5553 158.322 95.0748 158.799 94.4914 159.093C93.6334 159.499 92.6883 159.664 91.7503 159.571L86.5558 159.673L86.6016 159.332L89.696 160.178C90.725 160.391 91.7263 160.73 92.6793 161.188C93.2347 161.747 93.6793 162.414 93.9877 163.152C94.1427 163.531 94.1948 163.946 94.1382 164.353C94.1077 164.558 94.0436 164.757 93.9484 164.94C93.8432 165.11 93.7155 165.264 93.569 165.397C92.9854 165.846 92.3162 166.16 91.6063 166.318C90.9284 166.505 90.2244 166.567 89.5259 166.502L89.696 166.304C89.8598 166.986 89.8976 167.695 89.8072 168.391C89.7717 168.742 89.6623 169.081 89.4871 169.383C89.3118 169.684 89.0749 169.942 88.7932 170.138C88.2224 170.44 87.5881 170.587 86.9483 170.568C86.3399 170.602 85.7446 170.568 85.1623 170.568C82.8268 170.568 80.6744 170.424 78.7183 170.315C74.793 170.083 71.692 169.838 69.5593 169.633C68.7899 169.307 67.9861 169.078 67.1648 168.951L66.5106 168.835L66.3078 168.814Z" fill="#FF9A6C"/>
<path d="M64.344 168.521C64.344 168.521 11.9282 169.844 7.30941 167.157C2.69064 164.469 -2.64122 156.597 1.4738 146.098C5.58882 135.599 12.8572 124.419 12.8572 124.419L22.533 130.776L35.6893 139.42L31.6332 145.846L65.5935 150.621L64.344 168.521Z" fill="#FFBF9D"/>
<path d="M31.6341 145.846C31.6341 145.9 30.6789 145.484 29.1349 144.959C27.1203 144.284 25.0662 143.744 22.9853 143.342C20.9025 142.934 18.7991 142.649 16.6852 142.489C15.0628 142.373 14.0684 142.367 14.0684 142.312C14.3022 142.256 14.5417 142.231 14.7815 142.237C15.2329 142.237 15.9002 142.237 16.7441 142.237C18.8745 142.321 20.9958 142.572 23.09 142.987C25.1893 143.384 27.2529 143.964 29.2593 144.72C29.87 144.942 30.4685 145.2 31.0518 145.491C31.2572 145.588 31.4524 145.707 31.6341 145.846Z" fill="#FF9A6C"/>
</svg>
