<svg width="191" height="184" viewBox="0 0 191 184" fill="none" xmlns="http://www.w3.org/2000/svg">
<path d="M70.1104 87.4926C86.3171 115.756 100.515 145.083 116.983 148.461C132.648 151.652 166.751 108.072 172.12 94.0249C173.972 89.1848 140.708 71.0934 136.812 74.8386C129.481 81.8935 116.803 103.307 114.357 102.959C111.818 102.592 96.0131 85.5391 76.4522 70.3842C64.5956 61.1954 58.8828 67.933 70.1104 87.4926Z" fill="#EB9481"/>
<path d="M169.633 98.5042C172.457 94.9954 184.069 77.719 186.294 72.1386C188.518 66.5581 193.829 50.0096 190.003 47.7513C186.177 45.493 184.256 50.2398 184.256 50.2398C184.256 50.2398 185.467 42.8676 181.42 40.9764C177.372 39.0851 174.612 46.5195 174.612 46.5195C174.612 46.5195 175.34 38.8549 171.176 37.2747C167.012 35.6945 165.411 43.6702 165.411 43.6702C165.411 43.6702 166.378 36.6899 162.441 36.9326C157.695 37.2188 157.276 50.2958 154.387 56.2558C153.729 57.612 139.246 82.696 139.246 82.696L169.633 98.5042Z" fill="#EB9481"/>
<path d="M165.562 42.9609C165.23 52.579 163.53 56.7223 158.522 64.5362C158.423 64.6917 158.615 64.8784 158.731 64.729C164.287 57.5497 167.123 52.6847 165.999 42.9547C165.946 42.4819 165.58 42.5068 165.562 42.9609Z" fill="#263238"/>
<path d="M174.63 45.7294C173.465 55.6834 171.66 60.1938 166.978 68.7915C166.914 68.916 167.1 69.0466 167.176 68.9284C172.417 60.9092 175.154 55.9758 175.09 45.8725C175.09 45.4121 174.682 45.2752 174.63 45.7294Z" fill="#263238"/>
<path d="M184.004 50.6442C182.228 60.1938 180.446 65.233 174.902 72.9535C174.88 72.9898 174.871 73.0334 174.877 73.0763C174.882 73.1192 174.902 73.1586 174.932 73.1873C174.962 73.216 175.001 73.232 175.042 73.2325C175.083 73.233 175.122 73.2179 175.153 73.19C181.524 65.8987 183.795 59.6277 184.272 50.7313C184.301 50.1278 184.115 50.0407 184.004 50.6442Z" fill="#263238"/>
<path d="M168.015 41.1817C170.781 43.7013 171.561 49.8914 170.257 53.3504C169.168 56.2184 168.51 54.7191 168.836 51.3721C169.075 48.7778 167.881 46.3951 166.367 43.3467C165.091 40.7711 166.448 39.7694 168.015 41.1817Z" fill="white"/>
<path d="M167.858 56.7348C167.865 56.8945 167.916 57.0484 168.005 57.177C168.094 57.3056 168.217 57.4032 168.357 57.4575C168.498 57.5117 168.651 57.5201 168.796 57.4817C168.941 57.4432 169.073 57.3597 169.174 57.2415C169.274 57.1234 169.34 56.976 169.363 56.8179C169.385 56.6598 169.363 56.4982 169.3 56.3534C169.236 56.2086 169.134 56.0872 169.006 56.0045C168.878 55.9218 168.73 55.8815 168.58 55.8887C168.38 55.9 168.192 55.9951 168.057 56.1534C167.921 56.3118 167.85 56.5207 167.858 56.7348Z" fill="white"/>
<path d="M133.814 85.7693C133.814 85.7693 133.232 73.7312 134.07 68.3871C134.909 63.0431 144.884 44.3234 148.786 46.4013C153.829 49.0764 150.061 61.0896 147.493 66.7136C147.493 66.7136 159.14 72.8975 158.203 82.1423C157.265 91.3871 133.814 85.7693 133.814 85.7693Z" fill="#EB9481"/>
<path d="M149.943 47.6207C152.896 53.6055 149.081 60.7599 146.973 66.415C146.938 66.4966 146.922 66.586 146.927 66.6757C146.931 66.7653 146.956 66.8525 146.999 66.9296C147.042 67.0067 147.102 67.0716 147.173 67.1185C147.245 67.1654 147.326 67.193 147.41 67.1989C152.139 70.1415 158.009 75.7593 158.475 81.9059C158.481 81.938 158.497 81.9667 158.521 81.9874C158.545 82.008 158.575 82.0193 158.606 82.0193C158.636 82.0193 158.666 82.008 158.69 81.9874C158.714 81.9667 158.73 81.938 158.737 81.9059C159.074 75.2367 153.728 69.2146 148.353 66.3528C150.601 60.5857 154.13 53.2322 149.99 47.5895C149.989 47.5847 149.987 47.5802 149.984 47.5764C149.981 47.5726 149.977 47.5696 149.973 47.5676C149.968 47.5657 149.964 47.5649 149.959 47.5653C149.954 47.5658 149.95 47.5673 149.946 47.57C149.942 47.5726 149.939 47.5762 149.936 47.5805C149.934 47.5848 149.933 47.5896 149.932 47.5945C149.932 47.5995 149.933 47.6045 149.935 47.609C149.937 47.6136 149.94 47.6176 149.943 47.6207Z" fill="#263238"/>
<path d="M130.144 80.4439L162.476 112.539C162.476 112.539 132.916 153.015 117.7 150.053C102.483 147.092 77.3256 106.822 66.5289 79.9586C59.0633 61.3695 69.1669 63.7212 80.1558 72.3189C91.1447 80.9167 113.932 101.142 115.097 100.713C116.261 100.283 130.144 80.4439 130.144 80.4439Z" fill="#170648"/>
<path d="M153.025 118.947C148.367 114.536 129.871 95.7419 126.133 91.3933C125.877 91.0885 125.993 90.8396 126.302 91.1196C140.587 103.973 148.815 114.138 153.183 118.742C153.299 118.835 153.148 119.034 153.025 118.947Z" fill="#263238"/>
<path d="M106.653 143.366C106.426 142.862 108.4 134.998 108.889 135.048C109.378 135.097 116.203 140.697 118.713 141.057C121.223 141.418 129.329 138.053 130.215 138.37C131.1 138.687 133.19 143.838 133.19 143.838C133.19 143.838 124.263 152.803 117.391 151.304C112.022 150.128 106.653 143.366 106.653 143.366Z" fill="#170648"/>
<path opacity="0.1" d="M106.653 143.366C106.426 142.862 108.4 134.998 108.889 135.048C109.378 135.097 116.203 140.697 118.713 141.057C121.223 141.418 129.329 138.053 130.215 138.37C131.1 138.687 133.19 143.838 133.19 143.838C133.19 143.838 124.263 152.803 117.391 151.304C112.022 150.128 106.653 143.366 106.653 143.366Z" fill="#000102"/>
<path d="M120.686 144.224C120.461 143.204 120.43 142.147 120.593 141.113C120.665 140.604 120.778 140.103 120.931 139.614C121.092 139.101 121.318 138.613 121.601 138.165C121.752 138.682 121.832 139.221 121.839 139.763C121.858 140.798 121.706 141.827 121.391 142.806C121.231 143.317 120.993 143.796 120.686 144.224Z" fill="#263238"/>
<path d="M130.127 143.546C130.745 142.724 131.512 142.043 132.381 141.543C132.802 141.297 133.243 141.089 133.697 140.921C134.173 140.74 134.671 140.631 135.176 140.597C134.888 141.041 134.54 141.437 134.145 141.773C133.772 142.102 133.37 142.394 132.946 142.644C132.521 142.894 132.077 143.102 131.618 143.266C131.14 143.45 130.635 143.545 130.127 143.546Z" fill="#263238"/>
<path d="M129.26 142.538C129.68 141.592 130.274 140.745 131.007 140.05C131.368 139.704 131.758 139.394 132.171 139.123C132.597 138.828 133.06 138.602 133.546 138.451C133.356 138.954 133.099 139.426 132.783 139.85C132.487 140.257 132.158 140.633 131.799 140.977C131.437 141.322 131.047 141.632 130.634 141.903C130.213 142.196 129.748 142.41 129.26 142.538Z" fill="#263238"/>
<path d="M105.959 136.759C106.863 137.219 107.673 137.866 108.341 138.662C108.672 139.049 108.972 139.465 109.238 139.906C109.523 140.364 109.747 140.863 109.901 141.387C109.423 141.185 108.974 140.91 108.568 140.572C108.179 140.254 107.816 139.9 107.485 139.515C107.151 139.13 106.85 138.714 106.588 138.27C106.3 137.808 106.087 137.297 105.959 136.759Z" fill="#263238"/>
<path d="M118.48 138.357C119.386 138.817 120.196 139.466 120.862 140.267C121.197 140.653 121.499 141.069 121.765 141.512C122.048 141.97 122.269 142.468 122.423 142.992C121.944 142.79 121.495 142.515 121.089 142.177C120.309 141.539 119.639 140.76 119.109 139.875C118.822 139.41 118.61 138.897 118.48 138.357Z" fill="#263238"/>
<path opacity="0.1" d="M127.046 148.66C124.053 150.526 120.483 151.739 117.828 151.403C112.505 150.725 106.653 143.365 106.653 143.365C92.3969 130.463 74.9208 100.837 66.5408 79.9586C62.377 69.5815 63.6815 65.7368 67.5599 65.8488C68.1181 65.9965 68.6605 66.2049 69.1788 66.4709C84.6459 86.5966 113.344 128.833 127.046 148.66Z" fill="#000102"/>
<path d="M100.783 183.356L3.88672 183.648C4.11383 181.626 32.2003 85.5391 50.5675 69.2332C58.3942 62.2841 72.7782 67.3668 74.6125 68.9781C92.3741 84.4752 102.123 182.174 100.783 183.356Z" fill="#170648"/>
<path d="M49.8906 72.1572C50.8398 73.2335 51.8182 74.2724 52.8024 75.2678C53.7865 76.2632 54.8231 77.2711 55.848 78.2478C57.9153 80.1951 60.0234 82.0801 62.2131 83.8469C64.4027 85.6138 66.6331 87.3308 68.945 88.9172C71.2569 90.5037 73.6037 91.9905 76.0205 93.3903L75.2751 93.6392C75.3042 93.5645 75.3799 93.3654 75.4265 93.2161C75.4731 93.0668 75.5196 92.8739 75.5662 92.706C75.6536 92.3576 75.7351 92.003 75.805 91.6421C75.9448 90.9205 76.0554 90.1864 76.1602 89.4523C76.364 87.9778 76.5096 86.491 76.6436 85.0041C76.7775 83.5172 76.8765 82.0117 76.9813 80.5123L77.2609 76.0082C77.354 77.5137 77.4006 79.0192 77.4356 80.5248C77.4705 82.0303 77.4356 83.5421 77.4356 85.0538C77.4356 86.5656 77.3016 88.0711 77.1502 89.5891C77.0687 90.3419 76.9755 91.1009 76.8474 91.8537C76.7892 92.2332 76.7135 92.6126 76.6319 92.9921C76.5853 93.185 76.5446 93.3716 76.4863 93.5707L76.399 93.8631C76.3582 93.9689 76.3349 94.0498 76.265 94.1991L76.0205 94.7403L75.5196 94.4479C73.0519 93.0787 70.6515 91.5753 68.3277 89.9437C67.163 89.1412 65.9983 88.2702 64.8977 87.4179C64.3153 86.9824 63.7912 86.5158 63.238 86.0679C62.6848 85.62 62.1373 85.1658 61.6016 84.693C59.4418 82.8302 57.3755 80.8471 55.4113 78.7517C53.4354 76.6876 51.5911 74.4845 49.8906 72.1572Z" fill="#263238"/>
<path d="M41.0813 78.4594C20.1169 105.659 -4.14359 159.746 2.16321 169.868C9.19211 181.147 38.0764 144.274 37.7794 142.239C37.5523 140.703 46.1361 107.712 52.7341 83.679C59.332 59.6463 46.2526 71.7342 41.0813 78.4594Z" fill="#EB9481"/>
<path d="M37.9934 142.258C38.6864 138.756 50.4789 95.2007 53.7167 81.4704C56.9546 67.7402 52.5521 64.051 41.0507 77.4204C29.5494 90.7898 5.96444 132.118 1.53862 154.327C-2.74162 175.722 6.83213 176.817 19.2477 165.942C29.4155 157.04 37.9934 142.258 37.9934 142.258Z" fill="#170648"/>
<path d="M36.498 147.888C37.4473 143.77 38.4606 139.676 39.4855 135.583C40.5104 131.489 41.5819 127.408 42.6534 123.302L45.9204 111.077L47.6034 104.98C48.1857 102.952 48.7681 100.924 49.3504 98.9023C48.8787 100.962 48.3721 103.008 47.8829 105.061L46.3572 111.208L43.2183 123.47C42.1293 127.539 41.0636 131.62 39.9514 135.688C38.8391 139.757 37.6802 143.832 36.498 147.888Z" fill="#263238"/>
<path d="M46.9922 108.439C47.3558 107.391 47.7898 106.372 48.2908 105.391C48.5412 104.906 48.7916 104.421 49.0595 103.942C49.3274 103.462 49.6069 102.996 49.8923 102.523C49.5983 103.606 49.19 104.649 48.6752 105.634C48.1901 106.618 47.627 107.557 46.9922 108.439Z" fill="#263238"/>
<path d="M145.967 114.63L114.922 90.7898L90.959 147.073L122.033 167.168L145.967 114.63Z" fill="#37474F"/>
<path d="M141.938 114.337L115.534 94.3857L114.282 96.4449L95.7695 139.739C98.0146 142.205 100.078 144.853 101.942 147.658C104.272 151.391 111.056 163.491 119.413 164.455L141.938 114.337Z" fill="white"/>
<path d="M140.564 117.771C140.564 117.771 133.471 114.07 129.971 110.188C126.471 106.306 123.116 102.025 120.234 100.115C117.351 98.2055 114.451 96.2085 114.451 96.2085L115.534 94.3857L141.938 114.337L140.564 117.771Z" fill="#EBEBEB"/>
<path d="M75.584 167.846L125.089 168.835L145.966 114.63L94.4287 109.572L75.584 167.846Z" fill="#455A64"/>
<path d="M2.50064 170.77C9.59943 177.402 22.7895 175.878 60.1528 173.918C65.324 173.644 74.2922 133.256 68.7541 133.244C61.7659 133.244 34.7334 134.774 32.7651 135.153C16.1857 138.357 -2.32118 166.272 2.50064 170.77Z" fill="#EB9481"/>
<path d="M56.4079 135.744C56.4079 135.744 69.9183 131.296 78.8864 128.833C83.8888 127.458 92.6589 125.915 96.7644 126.699C102.908 127.875 127.897 136.976 125.957 143.496C124.21 149.4 103.671 138.668 103.671 138.668C103.671 138.668 125.288 147.54 121.957 154.222C118.626 160.903 96.9158 145.512 96.9158 145.512C96.9158 145.512 118.94 155.161 114.479 161.482C111.113 166.26 90.7255 153.475 90.7255 153.475C90.7255 153.475 109.623 161.874 106.344 166.963C102.739 172.562 83.2249 162.029 83.2249 162.029C72.8883 173.427 63.6173 174.316 56.9262 174.142C55.3131 174.098 56.4079 135.744 56.4079 135.744Z" fill="#EB9481"/>
<path d="M96.3741 135.085C98.9481 136.031 101.563 136.951 104.049 138.152C106.536 139.353 108.988 140.641 111.364 142.047C117.187 145.543 120.314 148.71 120.099 148.535C115.056 144.448 106.21 140.056 103.723 138.868C101.237 137.679 98.8142 136.379 96.3275 135.185C96.2693 135.154 96.3159 135.066 96.3741 135.085Z" fill="#263238"/>
<path d="M92.2054 144.604C95.4432 145.96 98.7102 147.185 101.89 148.691C105.069 150.196 107.946 151.92 111.009 153.668C111.242 153.805 111.097 153.898 110.858 153.774C107.731 152.169 104.726 150.949 101.581 149.388C98.4365 147.826 95.3501 146.134 92.1705 144.703C92.118 144.66 92.153 144.585 92.2054 144.604Z" fill="#263238"/>
<path d="M87.2539 152.088C92.3029 153.892 97.0315 156.685 101.615 159.553C101.842 159.696 101.644 159.796 101.399 159.665C96.6705 157.083 92.9784 155.03 87.1899 152.281C87.1025 152.231 87.1433 152.05 87.2539 152.088Z" fill="#263238"/>
<path d="M64.369 132.559L41.7565 177.943C41.7565 177.943 8.76084 178.323 2.11046 170.907C-2.26877 166.023 15.7839 136.902 34.3491 134.824L64.369 132.559Z" fill="#170648"/>
<path d="M14.3445 146.545C16.7205 143.54 23.662 136.168 34.3713 134.811C34.4645 134.811 34.4994 134.954 34.4063 134.979C26.5213 136.846 16.965 143.981 14.4493 146.669C14.3794 146.737 14.2862 146.619 14.3445 146.545Z" fill="#263238"/>
<path d="M31.7808 173.98C34.017 168.848 36.5094 163.852 39.0135 158.856C41.5176 153.861 44.0159 148.859 46.6364 143.925C48.1156 141.144 49.5831 138.326 51.1554 135.62C51.1962 135.545 51.3185 135.62 51.2835 135.682C49.0532 140.809 46.5782 145.823 44.109 150.825C41.6399 155.827 39.1125 160.828 36.5385 165.793C35.0885 168.593 33.5861 171.392 32.0137 174.105C31.9438 174.235 31.7167 174.129 31.7808 173.98Z" fill="#263238"/>
<path d="M64.3155 132.062C62.2557 131.951 60.1912 131.992 58.1368 132.186C56.0753 132.31 54.0138 132.472 51.9581 132.659C47.8817 133.026 39.1465 133.281 31.8905 135.241C31.8148 135.241 32.3214 135.57 32.3971 135.545C35.8155 134.432 61.8289 133.144 63.902 132.765C63.8509 132.927 63.812 133.093 63.7855 133.262C63.7855 133.38 63.902 133.492 63.9894 133.387C64.2048 133.138 64.3329 132.864 64.5251 132.597C64.5646 132.552 64.5911 132.496 64.6014 132.436C64.6117 132.375 64.6053 132.313 64.5831 132.256C64.5609 132.2 64.5238 132.151 64.4763 132.116C64.4288 132.082 64.3729 132.063 64.3155 132.062Z" fill="#263238"/>
<path d="M7.71289 174.696C9.08648 175.104 10.4887 175.393 11.9058 175.56C13.3151 175.76 14.7302 175.896 16.1453 176.039C18.9813 176.288 21.8231 176.494 24.6708 176.662C30.3603 177.022 36.0556 177.333 41.7626 177.794L41.652 177.862L43.5621 174.801L41.8733 178.005L41.8383 178.061H41.7626C38.8975 178.229 36.0382 178.26 33.1789 178.236C30.3195 178.211 27.4544 178.086 24.5951 177.887C21.7358 177.688 18.8823 177.402 16.0462 176.954C14.6253 176.73 13.2102 176.456 11.8068 176.114C10.3971 175.805 9.02399 175.329 7.71289 174.696Z" fill="#263238"/>
<path d="M1.14916 155.727C1.36463 155.223 7.16478 152.212 7.43266 152.616C7.70054 153.021 8.01501 162.234 9.37187 164.53C10.7287 166.826 18.3109 171.342 18.6486 172.276C18.9864 173.209 18.3808 176.487 18.3808 176.487C18.3808 176.487 4.45106 176.593 1.14916 169.98C-1.43645 164.841 1.14916 155.727 1.14916 155.727Z" fill="#170648"/>
<path opacity="0.1" d="M1.14916 155.727C1.36463 155.223 7.16478 152.212 7.43266 152.616C7.70054 153.021 8.01501 162.234 9.37187 164.53C10.7287 166.826 18.3109 171.342 18.6486 172.276C18.9864 173.209 18.3808 176.487 18.3808 176.487C18.3808 176.487 4.45106 176.593 1.14916 169.98C-1.43645 164.841 1.14916 155.727 1.14916 155.727Z" fill="#000102"/>
<path d="M5.76172 162.558C6.353 161.714 7.10026 161.009 7.95716 160.486C8.3697 160.218 8.8044 159.991 9.25579 159.808C9.72603 159.61 10.2201 159.485 10.7233 159.435C10.4448 159.881 10.1097 160.283 9.72749 160.629C9.36471 160.966 8.97498 161.268 8.5628 161.532C8.14874 161.799 7.71199 162.024 7.25835 162.203C6.78265 162.414 6.27614 162.534 5.76172 162.558Z" fill="#263238"/>
<path d="M7.16992 165.053C7.96693 164.427 8.8742 163.981 9.83706 163.74C10.303 163.613 10.7784 163.53 11.258 163.491C11.7643 163.446 12.274 163.477 12.7721 163.584C12.384 163.934 11.9505 164.221 11.4851 164.437C11.0448 164.652 10.5866 164.823 10.1166 164.947C9.64656 165.072 9.16723 165.153 8.68402 165.19C8.17571 165.233 7.66421 165.187 7.16992 165.053Z" fill="#263238"/>
<path d="M4.3284 151.298C4.57279 152.335 4.62227 153.413 4.47399 154.47C4.40951 154.989 4.30432 155.501 4.15952 156.001C4.01334 156.537 3.79564 157.049 3.51312 157.519C3.35694 156.997 3.26876 156.455 3.25106 155.908C3.21101 154.854 3.34506 153.801 3.64705 152.797C3.79367 152.26 4.02401 151.753 4.3284 151.298Z" fill="#263238"/>
<path d="M73.9421 80.6305C69.0038 83.0755 58.4692 76.5432 53.6357 70.4401C53.3096 70.0171 53.0533 64.9095 52.4302 58.7131C52.0459 54.9804 51.5392 50.781 50.8171 47.011C50.6657 46.2333 74.0702 47.9255 74.0702 47.9255C74.0702 47.9255 73.4005 56.3117 74.6991 62.8564C74.8029 63.3746 74.9531 63.8808 75.1475 64.3682C75.1475 64.4366 75.1999 64.5238 75.229 64.6171C76.2365 67.4851 78.7173 78.2602 73.9421 80.6305Z" fill="#EB9481"/>
<path d="M52.1973 46.8119C54.4451 52.9647 61.1072 67.566 72.9812 65.2766C73.7435 65.1368 74.4935 64.9287 75.2232 64.6544C75.2032 64.567 75.1759 64.4816 75.1417 64.3994C74.9541 63.9114 74.8041 63.4079 74.6933 62.8938C73.3946 56.3117 74.0643 47.9255 74.0643 47.9255C74.0643 47.9255 57.2113 46.6999 52.1973 46.8119Z" fill="#263238"/>
<path d="M42.559 17.8458C41.1963 26.68 48.464 50.6069 54.7882 55.2666C63.9777 62.0228 77.4997 60.8657 82.4729 49.4373C87.3064 38.3697 77.3192 7.36925 70.3835 3.30056C60.1808 -2.69049 44.5739 4.79366 42.559 17.8458Z" fill="#EB9481"/>
<path d="M64.1468 30.1203C64.1468 30.0643 64.0536 30.2385 64.0769 30.3007C64.6127 31.8934 64.9796 33.8219 63.7741 34.8298C63.7392 34.8609 63.7741 34.9355 63.8149 34.9107C65.4047 34.0832 64.898 31.5388 64.1468 30.1203Z" fill="#263238"/>
<path d="M62.2905 28.9072C59.8039 29.5293 61.1957 34.8111 63.496 34.2139C65.7962 33.6167 64.3753 28.3659 62.2905 28.9072Z" fill="#263238"/>
<path d="M72.9688 27.6007C72.9688 27.5323 73.1085 27.638 73.1202 27.7065C73.5045 29.3489 74.2033 31.1655 75.7232 31.2899C75.7757 31.2899 75.7931 31.377 75.7232 31.3832C73.9879 31.6383 73.0852 29.2244 72.9688 27.6007Z" fill="#263238"/>
<path d="M73.8779 25.4855C76.283 24.5461 77.867 29.7471 75.625 30.618C73.3829 31.489 71.8688 26.2507 73.8779 25.4855Z" fill="#263238"/>
<path d="M59.2911 26.0952C59.9404 25.8121 60.5759 25.4944 61.1954 25.1433C61.9233 24.7701 62.5348 24.5523 62.9424 23.7809C63.0401 23.548 63.0634 23.2872 63.0087 23.0387C62.954 22.7903 62.8243 22.5679 62.6396 22.406C61.8069 21.7839 60.8111 21.9829 59.9201 22.406C59.0086 22.7914 58.2622 23.5224 57.8236 24.459C57.7405 24.6809 57.7189 24.9237 57.7616 25.1584C57.8042 25.393 57.9092 25.6096 58.064 25.7822C58.2188 25.9548 58.4168 26.076 58.6344 26.1316C58.8521 26.1871 59.0801 26.1744 59.2911 26.0952Z" fill="#263238"/>
<path d="M75.1251 20.9626C74.4256 21.0176 73.7238 21.0321 73.0228 21.0062C72.2192 21.0062 71.5728 21.1119 70.874 20.6205C70.6885 20.4592 70.5582 20.2368 70.5034 19.9881C70.4486 19.7394 70.4724 19.4783 70.5711 19.2456C71.0487 18.2751 72.0386 18.0013 73.0053 17.9516C73.9831 17.8644 74.9564 18.1681 75.7365 18.8039C75.9017 18.9618 76.0213 19.1669 76.0812 19.395C76.1411 19.623 76.1388 19.8646 76.0745 20.0914C76.0103 20.3181 75.8869 20.5205 75.7187 20.6748C75.5505 20.8292 75.3445 20.929 75.1251 20.9626Z" fill="#263238"/>
<path d="M66.4072 45.5987C66.8731 45.8725 67.3739 46.2893 67.9446 46.1711C68.5088 45.9857 69.0305 45.6763 69.4762 45.2628C69.4856 45.2568 69.4965 45.2538 69.5074 45.2541C69.5184 45.2544 69.5291 45.258 69.5382 45.2645C69.5473 45.271 69.5545 45.2802 69.559 45.2909C69.5635 45.3016 69.5651 45.3134 69.5636 45.325C69.43 45.7122 69.2009 46.0537 68.9005 46.3132C68.6001 46.5728 68.2397 46.7408 67.8573 46.7994C67.5237 46.805 67.196 46.7052 66.9153 46.5127C66.6345 46.3201 66.4132 46.0433 66.2791 45.7169C66.2325 45.6298 66.3374 45.5365 66.4072 45.5987Z" fill="#263238"/>
<path d="M66.715 40.236C67.2731 40.7641 67.9276 41.1628 68.6373 41.4069C69.3469 41.6511 70.0963 41.7353 70.838 41.6544C71.4875 41.5992 72.1255 41.4398 72.7306 41.1816C72.8519 41.146 72.9691 41.0959 73.08 41.0323C73.1848 40.9826 73.2838 40.939 73.3945 40.8768C73.4723 40.8372 73.5357 40.7711 73.5746 40.6889C73.6136 40.6068 73.626 40.5131 73.6099 40.4226C73.5977 40.3661 73.5781 40.3116 73.5517 40.2609L73.5109 40.1178C73.2139 38.8736 72.5966 36.9761 72.5966 36.9761C73.0858 37.0756 75.5491 37.4676 75.3453 36.8205C73.5983 31.4889 71.6707 25.5477 68.8871 20.6453C68.8717 20.6074 68.8427 20.5775 68.8067 20.5624C68.7707 20.5472 68.7305 20.548 68.6949 20.5645C68.6594 20.581 68.6315 20.6119 68.6173 20.6504C68.6031 20.6889 68.6038 20.7318 68.6192 20.7698C70.0984 25.9707 72.4278 30.8544 73.9943 36.0553C73.2198 35.9807 71.9386 35.8003 71.3271 35.9993C71.1757 36.0989 72.585 39.6014 72.6782 40.18C72.6803 40.2007 72.6803 40.2216 72.6782 40.2422C70.7739 41.107 69.12 40.9203 66.8256 40.0805C66.6858 39.9872 66.5927 40.1302 66.715 40.236Z" fill="#263238"/>
<path d="M71.8684 40.7586C71.4624 41.8502 70.7982 42.8105 69.9408 43.5458C69.4625 43.9297 68.885 44.147 68.287 44.1679C66.9767 44.1679 66.6331 43.0045 66.5865 41.9158C66.5669 41.3356 66.6118 40.7551 66.7204 40.1863C68.335 40.9602 70.1393 41.1608 71.8684 40.7586Z" fill="#263238"/>
<path d="M69.9422 43.5457C69.4638 43.9297 68.8864 44.147 68.2883 44.1679C66.9781 44.1679 66.6345 43.0045 66.5879 41.9158C67.9331 41.6669 69.4763 42.2206 69.9422 43.5457Z" fill="#FF98B9"/>
<path d="M46.5432 40.3605C50.1421 40.124 51.3534 33.8655 51.4873 31.3645C51.6213 28.8636 47.6613 19.2456 48.1971 15.376C48.7328 11.5064 51.5688 8.4144 54.5505 8.27132C57.5321 8.12823 62.2607 10.6354 64.1941 9.70219C66.1275 8.76901 65.1142 3.97865 66.5235 3.48095C69.5808 2.34869 75.0141 9.00542 76.7262 12.3898C76.7262 12.3898 73.3311 -2.97669 57.1477 1.22887C42.3853 5.06115 41.1915 17.3232 41.4244 22.3811C41.8786 32.0675 46.5432 40.3605 46.5432 40.3605Z" fill="#263238"/>
<path d="M63.2103 40.4849C61.9255 40.7376 60.6002 40.6004 59.3847 40.0891C58.1692 39.5778 57.1122 38.7127 56.3337 37.592C55.5551 36.4713 55.0862 35.14 54.9801 33.749C54.874 32.358 55.135 30.9631 55.7335 29.7226C56.332 28.4821 57.244 27.4456 58.366 26.7308C59.488 26.0161 60.7751 25.6516 62.0812 25.6787C63.3873 25.7059 64.6601 26.1236 65.7552 26.8845C66.8503 27.6454 67.7239 28.719 68.2767 29.9835C69.0599 31.7833 69.1436 33.8414 68.5094 35.707C67.8753 37.5726 66.575 39.0938 64.8933 39.9374C64.3571 40.1978 63.7913 40.3819 63.2103 40.4849ZM60.7645 26.7484C60.2673 26.8459 59.7839 27.011 59.3261 27.2399C57.9181 27.9365 56.8118 29.1803 56.2323 30.7179C55.6529 32.2556 55.644 33.9714 56.2074 35.5158C56.7709 37.0602 57.8643 38.3171 59.2649 39.0303C60.6655 39.7435 62.2679 39.8594 63.7458 39.3545C65.2236 38.8495 66.4657 37.7617 67.2189 36.3125C67.9721 34.8634 68.1798 33.1619 67.7998 31.5549C67.4197 29.9478 66.4804 28.556 65.1733 27.663C63.8661 26.7699 62.2895 26.4429 60.7645 26.7484Z" fill="#EBEBEB"/>
<path d="M78.5423 35.2341C75.9043 35.7754 72.9984 33.3678 71.8978 29.635C71.3437 27.8635 71.3234 25.9511 71.8395 24.1666C72.0176 23.3852 72.3814 22.6662 72.8957 22.0791C73.41 21.492 74.0575 21.0566 74.7755 20.8152C75.4934 20.5737 76.2576 20.5342 76.994 20.7006C77.7304 20.8671 78.4142 21.2337 78.9791 21.7652C80.3699 22.909 81.3886 24.4913 81.8908 26.288C83.0555 30.226 81.7627 34.189 79.0199 35.1097C78.8631 35.1611 78.7037 35.2027 78.5423 35.2341ZM75.4035 21.6843C75.2851 21.7066 75.1684 21.7378 75.0541 21.7776C74.4904 21.9965 73.9844 22.3574 73.5789 22.8295C73.1734 23.3017 72.8804 23.8713 72.7247 24.4901C72.2718 26.0751 72.2942 27.7718 72.7888 29.3426C73.7962 32.7581 76.4401 34.9417 78.6996 34.1579C80.9591 33.374 81.9665 30.0083 80.9649 26.5928C80.5249 25.0033 79.6336 23.5989 78.4142 22.5739C77.9977 22.2104 77.5149 21.9436 76.9965 21.7904C76.4782 21.6373 75.9357 21.6011 75.4035 21.6843Z" fill="#EBEBEB"/>
<path d="M68.2764 30.8544L67.4902 30.3131C68.2356 29.0689 70.2214 27.047 72.4052 28.3659L71.9452 29.2369C69.9827 28.0548 68.3405 30.7362 68.2764 30.8544Z" fill="#EBEBEB"/>
<path d="M40.7189 42.4757L39.7988 42.3015C39.8745 41.8411 40.585 37.7787 42.4776 36.7584C44.2538 35.8127 54.8757 33.2247 55.3998 33.1065L55.5978 34.0832C52.0572 34.892 44.2712 36.9201 42.9027 37.6542C41.6507 38.3261 40.9053 41.3621 40.7189 42.4757Z" fill="#EBEBEB"/>
<path d="M49.9675 37.1317C49.9675 37.1317 43.6549 30.0768 40.5801 32.6026C37.5053 35.1284 43.0492 45.9471 47.2188 46.8679C47.7467 47.0222 48.2983 47.0615 48.8406 46.9832C49.383 46.905 49.905 46.7109 50.3757 46.4124C50.8463 46.114 51.2558 45.7174 51.5799 45.2463C51.904 44.7752 52.1359 44.2391 52.2619 43.6702L49.9675 37.1317Z" fill="#EB9481"/>
<path d="M42.2394 35.6634C42.1754 35.6634 42.1754 35.763 42.2394 35.7754C45.1803 36.5157 47.0322 39.0167 48.4589 41.6856C47.4806 40.7275 46.2751 40.3169 45.0522 41.586C44.9881 41.6545 45.0522 41.7602 45.1512 41.7354C45.613 41.4885 46.1354 41.4014 46.6457 41.4861C47.156 41.5708 47.6289 41.8232 47.9988 42.2082C48.6158 42.851 49.1646 43.5646 49.6352 44.3358C49.8041 44.5785 50.2176 44.3669 50.0953 44.0745L50.0604 44.0123C49.5828 40.236 46.0771 35.4146 42.2394 35.6634Z" fill="#263238"/>
<path d="M75.2633 64.5984L71.216 79.5293L52.7964 63.1426L48.6094 69.4882C48.6094 69.4882 67.6928 96.6315 67.6928 95.3064L72.0721 82.3289L80.8829 90.0868L78.175 68.5551L75.2633 64.5984Z" fill="#EBEBEB"/>
<path d="M80.0983 79.3552C79.516 75.8091 79.0734 72.2257 78.3513 68.7107C78.3222 68.5862 78.1358 68.5551 78.1183 68.7107C77.7748 72.2257 79.9644 85.7693 80.2556 89.0354L80.2206 89.0043C79.8479 88.6684 72.0678 82.217 72.0328 82.3414C71.0137 84.4379 67.7934 93.888 67.5954 94.7403C64.5788 90.429 51.907 73.5259 48.4362 69.5132C48.4177 69.4868 48.3901 69.4693 48.3595 69.4647C48.3289 69.46 48.2979 69.4685 48.2731 69.4883C48.2484 69.5081 48.2321 69.5376 48.2277 69.5702C48.2234 69.6029 48.2313 69.6361 48.2499 69.6625C50.9869 74.26 67.409 96.6005 67.6012 96.5196C67.7526 96.6191 71.7591 84.9667 72.1668 82.8018C73.512 84.2451 81.4261 91.611 81.3969 91.0822C81.1571 87.1516 80.7236 83.2371 80.0983 79.3552Z" fill="#263238"/>
</svg>
